<svg width="113" height="41" viewBox="0 0 113 41" fill="none" xmlns="http://www.w3.org/2000/svg">
<rect x="6.5354" y="6.29297" width="106.465" height="34.3434" fill="black"/>
<rect x="2.24243" y="2" width="106.465" height="34.3434" fill="#FF3939" stroke="black" stroke-width="3" stroke-linejoin="round"/>
<path d="M34.3876 23V12.776H36.4836V23H34.3876ZM35.5876 19.192V17.432H40.8836V19.192H35.5876ZM34.9956 14.544V12.776H41.0036V14.544H34.9956ZM45.4082 23.216C44.1922 23.216 43.2695 22.904 42.6402 22.28C42.0162 21.656 41.7042 20.768 41.7042 19.616V18.552C41.7042 17.3947 42.0162 16.504 42.6402 15.88C43.2695 15.2507 44.1922 14.936 45.4082 14.936C46.6189 14.936 47.5362 15.2507 48.1602 15.88C48.7842 16.504 49.0962 17.3947 49.0962 18.552V19.616C49.0962 20.768 48.7842 21.656 48.1602 22.28C47.5415 22.904 46.6242 23.216 45.4082 23.216ZM45.4082 21.576C45.9415 21.576 46.3469 21.416 46.6242 21.096C46.9069 20.776 47.0482 20.3173 47.0482 19.72V18.448C47.0482 17.84 46.9069 17.376 46.6242 17.056C46.3469 16.7307 45.9415 16.568 45.4082 16.568C44.8695 16.568 44.4589 16.7307 44.1762 17.056C43.8989 17.376 43.7602 17.84 43.7602 18.448V19.72C43.7602 20.3173 43.8989 20.776 44.1762 21.096C44.4589 21.416 44.8695 21.576 45.4082 21.576ZM50.2019 23V12.424H52.2579V23H50.2019ZM53.7314 23V12.424H55.7874V23H53.7314ZM60.5904 23.216C59.3744 23.216 58.4518 22.904 57.8224 22.28C57.1984 21.656 56.8864 20.768 56.8864 19.616V18.552C56.8864 17.3947 57.1984 16.504 57.8224 15.88C58.4518 15.2507 59.3744 14.936 60.5904 14.936C61.8011 14.936 62.7184 15.2507 63.3424 15.88C63.9664 16.504 64.2784 17.3947 64.2784 18.552V19.616C64.2784 20.768 63.9664 21.656 63.3424 22.28C62.7238 22.904 61.8064 23.216 60.5904 23.216ZM60.5904 21.576C61.1238 21.576 61.5291 21.416 61.8064 21.096C62.0891 20.776 62.2304 20.3173 62.2304 19.72V18.448C62.2304 17.84 62.0891 17.376 61.8064 17.056C61.5291 16.7307 61.1238 16.568 60.5904 16.568C60.0518 16.568 59.6411 16.7307 59.3584 17.056C59.0811 17.376 58.9424 17.84 58.9424 18.448V19.72C58.9424 20.3173 59.0811 20.776 59.3584 21.096C59.6411 21.416 60.0518 21.576 60.5904 21.576ZM66.2843 23L64.5883 15.152H66.6843L67.8363 21.544H67.9803L69.1483 15.352H71.7883L72.9643 21.544H73.1003L74.2683 15.152H76.3403L74.6443 23H71.6683L70.7083 17.808L70.5323 16.84H70.4123L70.2363 17.808L69.2683 23H66.2843Z" fill="black"/>
</svg>
