<svg width="113" height="41" viewBox="0 0 113 41" fill="none" xmlns="http://www.w3.org/2000/svg">
<rect x="6.29292" y="6.29292" width="106.465" height="34.3434" fill="black"/>
<rect x="2" y="2" width="106.465" height="34.3434" fill="#00FF75" stroke="black" stroke-width="3" stroke-linejoin="round"/>
<path d="M26.2799 25V14.776H28.3759V25H26.2799ZM27.4799 21.192V19.432H32.7759V21.192H27.4799ZM26.8879 16.544V14.776H32.8959V16.544H26.8879ZM37.3006 25.216C36.0846 25.216 35.1619 24.904 34.5326 24.28C33.9086 23.656 33.5966 22.768 33.5966 21.616V20.552C33.5966 19.3947 33.9086 18.504 34.5326 17.88C35.1619 17.2507 36.0846 16.936 37.3006 16.936C38.5112 16.936 39.4286 17.2507 40.0526 17.88C40.6766 18.504 40.9886 19.3947 40.9886 20.552V21.616C40.9886 22.768 40.6766 23.656 40.0526 24.28C39.4339 24.904 38.5166 25.216 37.3006 25.216ZM37.3006 23.576C37.8339 23.576 38.2392 23.416 38.5166 23.096C38.7992 22.776 38.9406 22.3173 38.9406 21.72V20.448C38.9406 19.84 38.7992 19.376 38.5166 19.056C38.2392 18.7307 37.8339 18.568 37.3006 18.568C36.7619 18.568 36.3512 18.7307 36.0686 19.056C35.7912 19.376 35.6526 19.84 35.6526 20.448V21.72C35.6526 22.3173 35.7912 22.776 36.0686 23.096C36.3512 23.416 36.7619 23.576 37.3006 23.576ZM42.0943 25V14.424H44.1503V25H42.0943ZM45.6238 25V14.424H47.6798V25H45.6238ZM52.4828 25.216C51.2668 25.216 50.3441 24.904 49.7148 24.28C49.0908 23.656 48.7788 22.768 48.7788 21.616V20.552C48.7788 19.3947 49.0908 18.504 49.7148 17.88C50.3441 17.2507 51.2668 16.936 52.4828 16.936C53.6935 16.936 54.6108 17.2507 55.2348 17.88C55.8588 18.504 56.1708 19.3947 56.1708 20.552V21.616C56.1708 22.768 55.8588 23.656 55.2348 24.28C54.6161 24.904 53.6988 25.216 52.4828 25.216ZM52.4828 23.576C53.0161 23.576 53.4215 23.416 53.6988 23.096C53.9815 22.776 54.1228 22.3173 54.1228 21.72V20.448C54.1228 19.84 53.9815 19.376 53.6988 19.056C53.4215 18.7307 53.0161 18.568 52.4828 18.568C51.9441 18.568 51.5335 18.7307 51.2508 19.056C50.9735 19.376 50.8348 19.84 50.8348 20.448V21.72C50.8348 22.3173 50.9735 22.776 51.2508 23.096C51.5335 23.416 51.9441 23.576 52.4828 23.576ZM58.1767 25L56.4807 17.152H58.5767L59.7287 23.544H59.8727L61.0407 17.352H63.6807L64.8567 23.544H64.9927L66.1607 17.152H68.2327L66.5367 25H63.5607L62.6007 19.808L62.4247 18.84H62.3047L62.1287 19.808L61.1607 25H58.1767ZM72.5249 25.192C71.1809 25.192 70.1809 24.8827 69.5249 24.264C68.8689 23.6453 68.5409 22.7493 68.5409 21.576V20.552C68.5409 19.3893 68.8476 18.496 69.4609 17.872C70.0743 17.248 70.9649 16.936 72.1329 16.936C72.9223 16.936 73.5809 17.0747 74.1089 17.352C74.6369 17.6293 75.0316 18.024 75.2929 18.536C75.5596 19.0427 75.6929 19.6507 75.6929 20.36V20.64C75.6929 20.832 75.6823 21.0293 75.6609 21.232C75.6449 21.4293 75.6209 21.616 75.5889 21.792H73.7329C73.7489 21.4987 73.7569 21.2213 73.7569 20.96C73.7623 20.6933 73.7649 20.4533 73.7649 20.24C73.7649 19.872 73.7063 19.56 73.5889 19.304C73.4716 19.0427 73.2929 18.8453 73.0529 18.712C72.8129 18.5787 72.5063 18.512 72.1329 18.512C71.5836 18.512 71.1783 18.664 70.9169 18.968C70.6556 19.272 70.5249 19.704 70.5249 20.264V20.992L70.5329 21.224V21.84C70.5329 22.0853 70.5703 22.312 70.6449 22.52C70.7249 22.728 70.8556 22.9093 71.0369 23.064C71.2183 23.2133 71.4583 23.3307 71.7569 23.416C72.0609 23.5013 72.4396 23.544 72.8929 23.544C73.3836 23.544 73.8503 23.4907 74.2929 23.384C74.7409 23.272 75.1649 23.1227 75.5649 22.936L75.3889 24.552C75.0316 24.7493 74.6103 24.904 74.1249 25.016C73.6449 25.1333 73.1116 25.192 72.5249 25.192ZM69.6289 21.792V20.432H75.1729V21.792H69.6289ZM79.2854 25.184C78.3628 25.184 77.6614 24.8853 77.1814 24.288C76.7014 23.6907 76.4614 22.8107 76.4614 21.648V20.568C76.4614 19.3893 76.7041 18.496 77.1894 17.888C77.6748 17.28 78.3974 16.976 79.3574 16.976C79.8268 16.976 80.2214 17.0507 80.5414 17.2C80.8668 17.3493 81.1281 17.5627 81.3254 17.84C81.5281 18.1173 81.6694 18.4427 81.7494 18.816H82.3494L81.8294 20.336C81.8188 19.968 81.7414 19.6587 81.5974 19.408C81.4588 19.152 81.2641 18.9573 81.0134 18.824C80.7628 18.6907 80.4668 18.624 80.1254 18.624C79.6081 18.624 79.2108 18.7733 78.9334 19.072C78.6614 19.3707 78.5254 19.816 78.5254 20.408V21.704C78.5254 22.2907 78.6614 22.7333 78.9334 23.032C79.2108 23.3307 79.6134 23.48 80.1414 23.48C80.4401 23.48 80.7068 23.424 80.9414 23.312C81.1761 23.2 81.3708 23.048 81.5254 22.856C81.6854 22.6587 81.8001 22.4373 81.8694 22.192L82.3574 23.336H81.7814C81.6961 23.6773 81.5574 23.9893 81.3654 24.272C81.1734 24.5493 80.9094 24.7707 80.5734 24.936C80.2374 25.1013 79.8081 25.184 79.2854 25.184ZM81.7974 25L81.8694 23.08L81.8294 22.624V19.416L81.8374 19.088L81.7974 16.84V14.424H83.8454V25H81.7974Z" fill="black"/>
</svg>
