<svg width="47" height="48" viewBox="0 0 47 48" fill="none" xmlns="http://www.w3.org/2000/svg">
<g id="Group 1779">
<g id="Group 1771">
<g id="Group 1731">
<rect id="Rectangle 2970" x="6.73633" y="6.73682" width="40.2632" height="40.2632" fill="black"/>
<rect id="Rectangle 2969" x="2" y="2" width="40.2632" height="40.2632" fill="#39DBFF" stroke="black" stroke-width="3" stroke-linejoin="round"/>
</g>
</g>
<g id="Group 1778">
<g id="Ellipse 702">
<mask id="path-3-inside-1_50_1629" fill="white">
<path d="M36.0368 34.4815C36.0368 32.7063 35.6871 30.9484 35.0078 29.3083C34.3284 27.6681 33.3327 26.1779 32.0774 24.9226C30.8221 23.6673 29.3318 22.6715 27.6917 21.9922C26.0515 21.3128 24.2937 20.9631 22.5184 20.9631C20.7431 20.9631 18.9853 21.3128 17.3451 21.9922C15.705 22.6715 14.2147 23.6673 12.9594 24.9226C11.7041 26.1779 10.7084 27.6681 10.029 29.3083C9.34966 30.9484 9 32.7063 9 34.4815L22.5184 34.4815H36.0368Z"/>
</mask>
<path d="M36.0368 34.4815C36.0368 32.7063 35.6871 30.9484 35.0078 29.3083C34.3284 27.6681 33.3327 26.1779 32.0774 24.9226C30.8221 23.6673 29.3318 22.6715 27.6917 21.9922C26.0515 21.3128 24.2937 20.9631 22.5184 20.9631C20.7431 20.9631 18.9853 21.3128 17.3451 21.9922C15.705 22.6715 14.2147 23.6673 12.9594 24.9226C11.7041 26.1779 10.7084 27.6681 10.029 29.3083C9.34966 30.9484 9 32.7063 9 34.4815L22.5184 34.4815H36.0368Z" stroke="black" stroke-width="8" mask="url(#path-3-inside-1_50_1629)"/>
</g>
<circle id="Ellipse 703" cx="22.5949" cy="16.1779" r="7.17791" fill="black"/>
</g>
</g>
</svg>
