<svg width="113" height="41" viewBox="0 0 113 41" fill="none" xmlns="http://www.w3.org/2000/svg">
<rect x="6.29292" y="6.29292" width="106.465" height="34.3434" fill="black"/>
<rect x="2" y="2" width="106.465" height="34.3434" fill="#FF3939" stroke="black" stroke-width="3" stroke-linejoin="round"/>
<path d="M10.2537 23.208C9.77902 23.208 9.33369 23.1733 8.91769 23.104C8.50702 23.0347 8.13369 22.9493 7.79769 22.848C7.46702 22.7413 7.18169 22.6347 6.94169 22.528L6.75769 20.544C7.17369 20.7627 7.66702 20.96 8.23769 21.136C8.80835 21.3067 9.41635 21.392 10.0617 21.392C10.7444 21.392 11.2377 21.2933 11.5417 21.096C11.8457 20.8987 11.9977 20.5947 11.9977 20.184V20.096C11.9977 19.8293 11.931 19.6107 11.7977 19.44C11.6697 19.264 11.4537 19.1093 11.1497 18.976C10.8457 18.8427 10.4324 18.7067 9.90969 18.568C9.17369 18.3653 8.56835 18.136 8.09369 17.88C7.62435 17.6187 7.27769 17.296 7.05369 16.912C6.82969 16.5227 6.71769 16.0347 6.71769 15.448V15.352C6.71769 14.456 7.01902 13.768 7.62169 13.288C8.22969 12.808 9.12569 12.568 10.3097 12.568C11.0457 12.568 11.6777 12.6347 12.2057 12.768C12.7337 12.9013 13.1764 13.056 13.5337 13.232L13.7177 15.08C13.3177 14.8667 12.859 14.6907 12.3417 14.552C11.8297 14.408 11.2697 14.336 10.6617 14.336C10.2084 14.336 9.84835 14.3787 9.58169 14.464C9.32035 14.5493 9.13102 14.6747 9.01369 14.84C8.90169 15.0053 8.84569 15.2053 8.84569 15.44V15.464C8.84569 15.704 8.90435 15.912 9.02169 16.088C9.14435 16.264 9.36035 16.4267 9.66969 16.576C9.97902 16.72 10.419 16.8693 10.9897 17.024C11.715 17.2267 12.307 17.4453 12.7657 17.68C13.2297 17.9147 13.5737 18.2187 13.7977 18.592C14.0217 18.9653 14.1337 19.4587 14.1337 20.072V20.216C14.1337 21.2027 13.811 21.9493 13.1657 22.456C12.5257 22.9573 11.555 23.208 10.2537 23.208ZM18.8966 23.192C17.5526 23.192 16.5526 22.8827 15.8966 22.264C15.2406 21.6453 14.9126 20.7493 14.9126 19.576V18.552C14.9126 17.3893 15.2192 16.496 15.8326 15.872C16.4459 15.248 17.3366 14.936 18.5046 14.936C19.2939 14.936 19.9526 15.0747 20.4806 15.352C21.0086 15.6293 21.4032 16.024 21.6646 16.536C21.9312 17.0427 22.0646 17.6507 22.0646 18.36V18.64C22.0646 18.832 22.0539 19.0293 22.0326 19.232C22.0166 19.4293 21.9926 19.616 21.9606 19.792H20.1046C20.1206 19.4987 20.1286 19.2213 20.1286 18.96C20.1339 18.6933 20.1366 18.4533 20.1366 18.24C20.1366 17.872 20.0779 17.56 19.9606 17.304C19.8432 17.0427 19.6646 16.8453 19.4246 16.712C19.1846 16.5787 18.8779 16.512 18.5046 16.512C17.9552 16.512 17.5499 16.664 17.2886 16.968C17.0272 17.272 16.8966 17.704 16.8966 18.264V18.992L16.9046 19.224V19.84C16.9046 20.0853 16.9419 20.312 17.0166 20.52C17.0966 20.728 17.2272 20.9093 17.4086 21.064C17.5899 21.2133 17.8299 21.3307 18.1286 21.416C18.4326 21.5013 18.8112 21.544 19.2646 21.544C19.7552 21.544 20.2219 21.4907 20.6646 21.384C21.1126 21.272 21.5366 21.1227 21.9366 20.936L21.7606 22.552C21.4032 22.7493 20.9819 22.904 20.4966 23.016C20.0166 23.1333 19.4832 23.192 18.8966 23.192ZM16.0006 19.792V18.432H21.5446V19.792H16.0006ZM28.2094 23V18.288C28.2094 17.9573 28.1641 17.672 28.0734 17.432C27.9881 17.192 27.8441 17.0053 27.6414 16.872C27.4388 16.7387 27.1614 16.672 26.8094 16.672C26.5001 16.672 26.2281 16.728 25.9934 16.84C25.7641 16.952 25.5748 17.104 25.4254 17.296C25.2814 17.4827 25.1721 17.696 25.0974 17.936L24.7774 16.816H25.1614C25.2468 16.4693 25.3881 16.1573 25.5854 15.88C25.7881 15.6027 26.0601 15.384 26.4014 15.224C26.7481 15.0587 27.1801 14.976 27.6974 14.976C28.3001 14.976 28.7881 15.0907 29.1614 15.32C29.5348 15.544 29.8094 15.88 29.9854 16.328C30.1668 16.776 30.2574 17.3307 30.2574 17.992V23H28.2094ZM23.0974 23V15.152H25.1454L25.0654 17.064L25.1454 17.232V23H23.0974ZM34.1084 23.184C33.1858 23.184 32.4844 22.8853 32.0044 22.288C31.5244 21.6907 31.2844 20.8107 31.2844 19.648V18.568C31.2844 17.3893 31.5271 16.496 32.0124 15.888C32.4978 15.28 33.2204 14.976 34.1804 14.976C34.6498 14.976 35.0444 15.0507 35.3644 15.2C35.6898 15.3493 35.9511 15.5627 36.1484 15.84C36.3511 16.1173 36.4924 16.4427 36.5724 16.816H37.1724L36.6524 18.336C36.6418 17.968 36.5644 17.6587 36.4204 17.408C36.2818 17.152 36.0871 16.9573 35.8364 16.824C35.5858 16.6907 35.2898 16.624 34.9484 16.624C34.4311 16.624 34.0338 16.7733 33.7564 17.072C33.4844 17.3707 33.3484 17.816 33.3484 18.408V19.704C33.3484 20.2907 33.4844 20.7333 33.7564 21.032C34.0338 21.3307 34.4364 21.48 34.9644 21.48C35.2631 21.48 35.5298 21.424 35.7644 21.312C35.9991 21.2 36.1938 21.048 36.3484 20.856C36.5084 20.6587 36.6231 20.4373 36.6924 20.192L37.1804 21.336H36.6044C36.5191 21.6773 36.3804 21.9893 36.1884 22.272C35.9964 22.5493 35.7324 22.7707 35.3964 22.936C35.0604 23.1013 34.6311 23.184 34.1084 23.184ZM36.6204 23L36.6924 21.08L36.6524 20.624V17.416L36.6604 17.088L36.6204 14.84V12.424H38.6684V23H36.6204ZM53.6704 23V18.232C53.6704 17.912 53.6304 17.6373 53.5504 17.408C53.4704 17.1733 53.3371 16.992 53.1504 16.864C52.9691 16.736 52.7211 16.672 52.4064 16.672C52.1184 16.672 51.8678 16.728 51.6544 16.84C51.4411 16.952 51.2678 17.104 51.1344 17.296C51.0011 17.4827 50.9024 17.696 50.8384 17.936L50.6144 16.816H50.8224C50.9078 16.48 51.0464 16.1733 51.2384 15.896C51.4304 15.6133 51.6918 15.3893 52.0224 15.224C52.3584 15.0587 52.7824 14.976 53.2944 14.976C53.8651 14.976 54.3264 15.088 54.6784 15.312C55.0358 15.5307 55.2998 15.8613 55.4704 16.304C55.6411 16.7413 55.7264 17.2853 55.7264 17.936V23H53.6704ZM43.9984 23V15.152H46.0464L45.9664 17.144L46.0464 17.232V23H43.9984ZM48.8384 23V18.232C48.8384 17.912 48.7984 17.6373 48.7184 17.408C48.6384 17.1733 48.5051 16.992 48.3184 16.864C48.1371 16.736 47.8891 16.672 47.5744 16.672C47.2811 16.672 47.0278 16.728 46.8144 16.84C46.6064 16.952 46.4331 17.104 46.2944 17.296C46.1611 17.4827 46.0624 17.696 45.9984 17.936L45.6784 16.816H46.0624C46.1424 16.4693 46.2758 16.1573 46.4624 15.88C46.6544 15.6027 46.9131 15.384 47.2384 15.224C47.5638 15.0587 47.9691 14.976 48.4544 14.976C49.1851 14.976 49.7344 15.1627 50.1024 15.536C50.4758 15.9093 50.7104 16.4533 50.8064 17.168C50.8278 17.2747 50.8464 17.4 50.8624 17.544C50.8784 17.6827 50.8864 17.8133 50.8864 17.936V23H48.8384ZM60.7159 23.192C59.3719 23.192 58.3719 22.8827 57.7159 22.264C57.0599 21.6453 56.7319 20.7493 56.7319 19.576V18.552C56.7319 17.3893 57.0386 16.496 57.6519 15.872C58.2653 15.248 59.1559 14.936 60.3239 14.936C61.1133 14.936 61.7719 15.0747 62.2999 15.352C62.8279 15.6293 63.2226 16.024 63.4839 16.536C63.7506 17.0427 63.8839 17.6507 63.8839 18.36V18.64C63.8839 18.832 63.8733 19.0293 63.8519 19.232C63.8359 19.4293 63.8119 19.616 63.7799 19.792H61.9239C61.9399 19.4987 61.9479 19.2213 61.9479 18.96C61.9533 18.6933 61.9559 18.4533 61.9559 18.24C61.9559 17.872 61.8973 17.56 61.7799 17.304C61.6626 17.0427 61.4839 16.8453 61.2439 16.712C61.0039 16.5787 60.6973 16.512 60.3239 16.512C59.7746 16.512 59.3693 16.664 59.1079 16.968C58.8466 17.272 58.7159 17.704 58.7159 18.264V18.992L58.7239 19.224V19.84C58.7239 20.0853 58.7613 20.312 58.8359 20.52C58.9159 20.728 59.0466 20.9093 59.2279 21.064C59.4093 21.2133 59.6493 21.3307 59.9479 21.416C60.2519 21.5013 60.6306 21.544 61.0839 21.544C61.5746 21.544 62.0413 21.4907 62.4839 21.384C62.9319 21.272 63.3559 21.1227 63.7559 20.936L63.5799 22.552C63.2226 22.7493 62.8013 22.904 62.3159 23.016C61.8359 23.1333 61.3026 23.192 60.7159 23.192ZM57.8199 19.792V18.432H63.3639V19.792H57.8199ZM67.6437 23.192C67.0144 23.192 66.4544 23.1307 65.9637 23.008C65.4784 22.8907 65.065 22.7573 64.7237 22.608L64.5397 20.832C64.945 21.0187 65.3904 21.1813 65.8757 21.32C66.3664 21.4587 66.905 21.528 67.4917 21.528C68.0037 21.528 68.3744 21.464 68.6037 21.336C68.833 21.2027 68.9477 21.0053 68.9477 20.744V20.696C68.9477 20.52 68.8944 20.376 68.7877 20.264C68.6864 20.152 68.505 20.0507 68.2437 19.96C67.9824 19.864 67.6144 19.7627 67.1397 19.656C66.4837 19.5013 65.9637 19.3227 65.5797 19.12C65.201 18.912 64.929 18.6587 64.7637 18.36C64.5984 18.056 64.5157 17.6933 64.5157 17.272V17.2C64.5157 16.4587 64.7797 15.9013 65.3077 15.528C65.8357 15.1493 66.617 14.96 67.6517 14.96C68.265 14.96 68.8064 15.0213 69.2757 15.144C69.7504 15.2613 70.145 15.4027 70.4597 15.568L70.6437 17.2C70.2704 17.024 69.8517 16.8773 69.3877 16.76C68.9237 16.6373 68.425 16.576 67.8917 16.576C67.545 16.576 67.2704 16.6053 67.0677 16.664C66.8704 16.7173 66.729 16.7947 66.6437 16.896C66.5584 16.9973 66.5157 17.12 66.5157 17.264V17.304C66.5157 17.464 66.561 17.6027 66.6517 17.72C66.7477 17.8373 66.921 17.944 67.1717 18.04C67.4224 18.1307 67.7744 18.2293 68.2277 18.336C68.889 18.4747 69.4197 18.6373 69.8197 18.824C70.2197 19.0107 70.5104 19.2507 70.6917 19.544C70.873 19.832 70.9637 20.2107 70.9637 20.68V20.776C70.9637 21.5867 70.689 22.192 70.1397 22.592C69.5904 22.992 68.7584 23.192 67.6437 23.192ZM74.5013 23.192C73.872 23.192 73.312 23.1307 72.8213 23.008C72.336 22.8907 71.9226 22.7573 71.5813 22.608L71.3973 20.832C71.8026 21.0187 72.248 21.1813 72.7333 21.32C73.224 21.4587 73.7626 21.528 74.3493 21.528C74.8613 21.528 75.232 21.464 75.4613 21.336C75.6906 21.2027 75.8053 21.0053 75.8053 20.744V20.696C75.8053 20.52 75.752 20.376 75.6453 20.264C75.544 20.152 75.3626 20.0507 75.1013 19.96C74.84 19.864 74.472 19.7627 73.9973 19.656C73.3413 19.5013 72.8213 19.3227 72.4373 19.12C72.0586 18.912 71.7866 18.6587 71.6213 18.36C71.456 18.056 71.3733 17.6933 71.3733 17.272V17.2C71.3733 16.4587 71.6373 15.9013 72.1653 15.528C72.6933 15.1493 73.4746 14.96 74.5093 14.96C75.1226 14.96 75.664 15.0213 76.1333 15.144C76.608 15.2613 77.0026 15.4027 77.3173 15.568L77.5013 17.2C77.128 17.024 76.7093 16.8773 76.2453 16.76C75.7813 16.6373 75.2826 16.576 74.7493 16.576C74.4026 16.576 74.128 16.6053 73.9253 16.664C73.728 16.7173 73.5866 16.7947 73.5013 16.896C73.416 16.9973 73.3733 17.12 73.3733 17.264V17.304C73.3733 17.464 73.4186 17.6027 73.5093 17.72C73.6053 17.8373 73.7786 17.944 74.0293 18.04C74.28 18.1307 74.632 18.2293 75.0853 18.336C75.7466 18.4747 76.2773 18.6373 76.6773 18.824C77.0773 19.0107 77.368 19.2507 77.5493 19.544C77.7306 19.832 77.8213 20.2107 77.8213 20.68V20.776C77.8213 21.5867 77.5466 22.192 76.9973 22.592C76.448 22.992 75.616 23.192 74.5013 23.192ZM83.2854 23L83.3574 21.08L83.3014 20.904V18.448L83.2934 18.096C83.2934 17.584 83.1521 17.208 82.8694 16.968C82.5921 16.728 82.1361 16.608 81.5014 16.608C80.9628 16.608 80.4561 16.68 79.9814 16.824C79.5121 16.9627 79.0774 17.1253 78.6774 17.312L78.8534 15.68C79.0881 15.5573 79.3548 15.4427 79.6534 15.336C79.9574 15.224 80.2961 15.1333 80.6694 15.064C81.0428 14.9947 81.4454 14.96 81.8774 14.96C82.5174 14.96 83.0588 15.0373 83.5014 15.192C83.9441 15.3413 84.2961 15.5573 84.5574 15.84C84.8241 16.1227 85.0161 16.4613 85.1334 16.856C85.2508 17.2453 85.3094 17.6773 85.3094 18.152V23H83.2854ZM80.7174 23.184C79.9388 23.184 79.3441 22.9893 78.9334 22.6C78.5281 22.2107 78.3254 21.656 78.3254 20.936V20.712C78.3254 19.9493 78.5601 19.3867 79.0294 19.024C79.4988 18.656 80.2428 18.4027 81.2614 18.264L83.4854 17.96L83.6054 19.28L81.5574 19.576C81.1094 19.6347 80.7894 19.7413 80.5974 19.896C80.4108 20.0507 80.3174 20.2773 80.3174 20.576V20.656C80.3174 20.9493 80.4081 21.1787 80.5894 21.344C80.7761 21.504 81.0668 21.584 81.4614 21.584C81.8134 21.584 82.1148 21.528 82.3654 21.416C82.6161 21.304 82.8214 21.1573 82.9814 20.976C83.1468 20.7893 83.2641 20.5813 83.3334 20.352L83.6214 21.368H83.2694C83.1841 21.704 83.0454 22.0107 82.8534 22.288C82.6668 22.56 82.4028 22.7787 82.0614 22.944C81.7201 23.104 81.2721 23.184 80.7174 23.184ZM89.8646 20.592C88.6752 20.592 87.7739 20.3573 87.1606 19.888C86.5472 19.4133 86.2406 18.7493 86.2406 17.896V17.776C86.2406 17.2107 86.3632 16.7307 86.6086 16.336C86.8539 15.936 87.2379 15.624 87.7606 15.4C88.2832 15.176 88.9606 15.048 89.7926 15.016L93.9286 14.848V16.352L91.8006 16.272V16.36C92.1366 16.4293 92.4139 16.5413 92.6326 16.696C92.8566 16.8453 93.0246 17.04 93.1366 17.28C93.2486 17.5147 93.3046 17.8 93.3046 18.136V18.208C93.3046 18.9813 93.0192 19.5733 92.4486 19.984C91.8779 20.3893 91.0166 20.592 89.8646 20.592ZM89.7686 24.496H89.9926C90.4086 24.496 90.7526 24.4667 91.0246 24.408C91.2966 24.3547 91.4992 24.2693 91.6326 24.152C91.7712 24.04 91.8406 23.8933 91.8406 23.712V23.688C91.8406 23.464 91.7526 23.2987 91.5766 23.192C91.4059 23.0907 91.1286 23.0213 90.7446 22.984L88.4486 22.76L88.9206 22.736C88.7232 22.7733 88.5472 22.8293 88.3926 22.904C88.2432 22.9733 88.1259 23.0667 88.0406 23.184C87.9552 23.3013 87.9126 23.4453 87.9126 23.616V23.632C87.9126 23.8293 87.9819 23.992 88.1206 24.12C88.2592 24.2533 88.4672 24.3493 88.7446 24.408C89.0219 24.4667 89.3632 24.496 89.7686 24.496ZM89.6566 26.04C88.8992 26.04 88.2512 25.976 87.7126 25.848C87.1739 25.7253 86.7606 25.528 86.4726 25.256C86.1899 24.984 86.0486 24.624 86.0486 24.176V24.144C86.0486 23.84 86.1152 23.584 86.2486 23.376C86.3819 23.168 86.5712 23.0027 86.8166 22.88C87.0619 22.7573 87.3446 22.68 87.6646 22.648V22.568C87.2592 22.488 86.9526 22.3573 86.7446 22.176C86.5419 21.9893 86.4406 21.736 86.4406 21.416V21.408C86.4406 21.184 86.4912 20.9947 86.5926 20.84C86.6939 20.6853 86.8432 20.5627 87.0406 20.472C87.2432 20.3813 87.4912 20.328 87.7846 20.312V20.08L89.5206 20.512L88.9606 20.496C88.7152 20.5013 88.5446 20.536 88.4486 20.6C88.3526 20.6587 88.3046 20.744 88.3046 20.856V20.864C88.3046 21.0027 88.3792 21.104 88.5286 21.168C88.6779 21.2267 88.9259 21.2773 89.2726 21.32L91.1526 21.528C92.0326 21.6293 92.6806 21.8453 93.0966 22.176C93.5179 22.5067 93.7286 23.016 93.7286 23.704V23.744C93.7286 24.272 93.5792 24.704 93.2806 25.04C92.9819 25.3813 92.5499 25.632 91.9846 25.792C91.4246 25.9573 90.7446 26.04 89.9446 26.04H89.6566ZM89.8086 19.168C90.1659 19.168 90.4619 19.1173 90.6966 19.016C90.9366 18.9147 91.1152 18.7653 91.2326 18.568C91.3552 18.3707 91.4166 18.1307 91.4166 17.848V17.76C91.4166 17.4773 91.3579 17.24 91.2406 17.048C91.1232 16.8507 90.9472 16.704 90.7126 16.608C90.4779 16.5067 90.1819 16.456 89.8246 16.456H89.8006C89.4219 16.456 89.1126 16.5093 88.8726 16.616C88.6326 16.7173 88.4566 16.8667 88.3446 17.064C88.2326 17.256 88.1766 17.488 88.1766 17.76V17.848C88.1766 18.1307 88.2352 18.3707 88.3526 18.568C88.4752 18.7653 88.6566 18.9147 88.8966 19.016C89.1419 19.1173 89.4459 19.168 89.8086 19.168ZM98.1134 23.192C96.7694 23.192 95.7694 22.8827 95.1134 22.264C94.4574 21.6453 94.1294 20.7493 94.1294 19.576V18.552C94.1294 17.3893 94.4361 16.496 95.0494 15.872C95.6628 15.248 96.5534 14.936 97.7214 14.936C98.5108 14.936 99.1694 15.0747 99.6974 15.352C100.225 15.6293 100.62 16.024 100.881 16.536C101.148 17.0427 101.281 17.6507 101.281 18.36V18.64C101.281 18.832 101.271 19.0293 101.249 19.232C101.233 19.4293 101.209 19.616 101.177 19.792H99.3214C99.3374 19.4987 99.3454 19.2213 99.3454 18.96C99.3508 18.6933 99.3534 18.4533 99.3534 18.24C99.3534 17.872 99.2948 17.56 99.1774 17.304C99.0601 17.0427 98.8814 16.8453 98.6414 16.712C98.4014 16.5787 98.0948 16.512 97.7214 16.512C97.1721 16.512 96.7668 16.664 96.5054 16.968C96.2441 17.272 96.1134 17.704 96.1134 18.264V18.992L96.1214 19.224V19.84C96.1214 20.0853 96.1588 20.312 96.2334 20.52C96.3134 20.728 96.4441 20.9093 96.6254 21.064C96.8068 21.2133 97.0468 21.3307 97.3454 21.416C97.6494 21.5013 98.0281 21.544 98.4814 21.544C98.9721 21.544 99.4388 21.4907 99.8814 21.384C100.329 21.272 100.753 21.1227 101.153 20.936L100.977 22.552C100.62 22.7493 100.199 22.904 99.7134 23.016C99.2334 23.1333 98.7001 23.192 98.1134 23.192ZM95.2174 19.792V18.432H100.761V19.792H95.2174Z" fill="black"/>
</svg>
