<svg width="113" height="41" viewBox="0 0 113 41" fill="none" xmlns="http://www.w3.org/2000/svg">
<rect x="6.53511" y="6.29292" width="106.465" height="34.3434" fill="black"/>
<rect x="2.24219" y="2" width="106.465" height="34.3434" fill="#FFB443" stroke="black" stroke-width="3" stroke-linejoin="round"/>
<path d="M43.3439 23.208C42.8693 23.208 42.4239 23.1733 42.0079 23.104C41.5973 23.0347 41.2239 22.9493 40.8879 22.848C40.5573 22.7413 40.2719 22.6347 40.0319 22.528L39.8479 20.544C40.2639 20.7627 40.7573 20.96 41.3279 21.136C41.8986 21.3067 42.5066 21.392 43.1519 21.392C43.8346 21.392 44.3279 21.2933 44.6319 21.096C44.9359 20.8987 45.0879 20.5947 45.0879 20.184V20.096C45.0879 19.8293 45.0213 19.6107 44.8879 19.44C44.7599 19.264 44.5439 19.1093 44.2399 18.976C43.9359 18.8427 43.5226 18.7067 42.9999 18.568C42.2639 18.3653 41.6586 18.136 41.1839 17.88C40.7146 17.6187 40.3679 17.296 40.1439 16.912C39.9199 16.5227 39.8079 16.0347 39.8079 15.448V15.352C39.8079 14.456 40.1093 13.768 40.7119 13.288C41.3199 12.808 42.2159 12.568 43.3999 12.568C44.1359 12.568 44.7679 12.6347 45.2959 12.768C45.8239 12.9013 46.2666 13.056 46.6239 13.232L46.8079 15.08C46.4079 14.8667 45.9493 14.6907 45.4319 14.552C44.9199 14.408 44.3599 14.336 43.7519 14.336C43.2986 14.336 42.9386 14.3787 42.6719 14.464C42.4106 14.5493 42.2213 14.6747 42.1039 14.84C41.9919 15.0053 41.9359 15.2053 41.9359 15.44V15.464C41.9359 15.704 41.9946 15.912 42.1119 16.088C42.2346 16.264 42.4506 16.4267 42.7599 16.576C43.0693 16.72 43.5093 16.8693 44.0799 17.024C44.8053 17.2267 45.3973 17.4453 45.8559 17.68C46.3199 17.9147 46.6639 18.2187 46.8879 18.592C47.1119 18.9653 47.2239 19.4587 47.2239 20.072V20.216C47.2239 21.2027 46.9013 21.9493 46.2559 22.456C45.6159 22.9573 44.6453 23.208 43.3439 23.208ZM51.9868 23.192C50.6428 23.192 49.6428 22.8827 48.9868 22.264C48.3308 21.6453 48.0028 20.7493 48.0028 19.576V18.552C48.0028 17.3893 48.3095 16.496 48.9228 15.872C49.5361 15.248 50.4268 14.936 51.5948 14.936C52.3841 14.936 53.0428 15.0747 53.5708 15.352C54.0988 15.6293 54.4935 16.024 54.7548 16.536C55.0215 17.0427 55.1548 17.6507 55.1548 18.36V18.64C55.1548 18.832 55.1441 19.0293 55.1228 19.232C55.1068 19.4293 55.0828 19.616 55.0508 19.792H53.1948C53.2108 19.4987 53.2188 19.2213 53.2188 18.96C53.2241 18.6933 53.2268 18.4533 53.2268 18.24C53.2268 17.872 53.1681 17.56 53.0508 17.304C52.9335 17.0427 52.7548 16.8453 52.5148 16.712C52.2748 16.5787 51.9681 16.512 51.5948 16.512C51.0455 16.512 50.6401 16.664 50.3788 16.968C50.1175 17.272 49.9868 17.704 49.9868 18.264V18.992L49.9948 19.224V19.84C49.9948 20.0853 50.0321 20.312 50.1068 20.52C50.1868 20.728 50.3175 20.9093 50.4988 21.064C50.6801 21.2133 50.9201 21.3307 51.2188 21.416C51.5228 21.5013 51.9015 21.544 52.3548 21.544C52.8455 21.544 53.3121 21.4907 53.7548 21.384C54.2028 21.272 54.6268 21.1227 55.0268 20.936L54.8508 22.552C54.4935 22.7493 54.0721 22.904 53.5868 23.016C53.1068 23.1333 52.5735 23.192 51.9868 23.192ZM49.0908 19.792V18.432H54.6348V19.792H49.0908ZM59.2746 23.168C58.6079 23.168 58.0746 23.0693 57.6746 22.872C57.2799 22.6693 56.9946 22.3653 56.8186 21.96C56.6426 21.5547 56.5546 21.056 56.5546 20.464V15.888H58.5866V20.16C58.5866 20.5867 58.6826 20.9013 58.8746 21.104C59.0719 21.3013 59.4159 21.4 59.9066 21.4C60.1946 21.4 60.4719 21.3707 60.7386 21.312C61.0052 21.248 61.2506 21.1653 61.4746 21.064L61.2986 22.776C61.0319 22.8987 60.7252 22.9947 60.3786 23.064C60.0372 23.1333 59.6692 23.168 59.2746 23.168ZM55.4186 16.832V15.216H61.4026L61.2266 16.832H55.4186ZM56.5786 15.368L56.5706 13.288L58.6106 13.08L58.5306 15.368H56.5786ZM64.4291 23.168C63.7624 23.168 63.2291 23.0693 62.8291 22.872C62.4344 22.6693 62.1491 22.3653 61.9731 21.96C61.7971 21.5547 61.7091 21.056 61.7091 20.464V15.888H63.7411V20.16C63.7411 20.5867 63.8371 20.9013 64.0291 21.104C64.2264 21.3013 64.5704 21.4 65.0611 21.4C65.3491 21.4 65.6264 21.3707 65.8931 21.312C66.1597 21.248 66.4051 21.1653 66.6291 21.064L66.4531 22.776C66.1864 22.8987 65.8797 22.9947 65.5331 23.064C65.1917 23.1333 64.8237 23.168 64.4291 23.168ZM60.5731 16.832V15.216H66.5571L66.3811 16.832H60.5731ZM61.7331 15.368L61.7251 13.288L63.7651 13.08L63.6851 15.368H61.7331ZM67.4189 23V15.152H69.4669V23H67.4189ZM68.4429 14.224C68.0536 14.224 67.7656 14.1333 67.5789 13.952C67.3976 13.7653 67.3069 13.5093 67.3069 13.184V13.144C67.3069 12.8187 67.3976 12.5627 67.5789 12.376C67.7656 12.1893 68.0536 12.096 68.4429 12.096C68.8269 12.096 69.1123 12.1893 69.2989 12.376C69.4856 12.5627 69.5789 12.8187 69.5789 13.144V13.184C69.5789 13.5147 69.4856 13.7707 69.2989 13.952C69.1123 14.1333 68.8269 14.224 68.4429 14.224ZM75.9663 23V18.288C75.9663 17.9573 75.921 17.672 75.8303 17.432C75.745 17.192 75.601 17.0053 75.3983 16.872C75.1956 16.7387 74.9183 16.672 74.5663 16.672C74.257 16.672 73.985 16.728 73.7503 16.84C73.521 16.952 73.3316 17.104 73.1823 17.296C73.0383 17.4827 72.929 17.696 72.8543 17.936L72.5343 16.816H72.9183C73.0036 16.4693 73.145 16.1573 73.3423 15.88C73.545 15.6027 73.817 15.384 74.1583 15.224C74.505 15.0587 74.937 14.976 75.4543 14.976C76.057 14.976 76.545 15.0907 76.9183 15.32C77.2916 15.544 77.5663 15.88 77.7423 16.328C77.9236 16.776 78.0143 17.3307 78.0143 17.992V23H75.9663ZM70.8543 23V15.152H72.9023L72.8223 17.064L72.9023 17.232V23H70.8543ZM82.6493 20.592C81.46 20.592 80.5586 20.3573 79.9453 19.888C79.332 19.4133 79.0253 18.7493 79.0253 17.896V17.776C79.0253 17.2107 79.148 16.7307 79.3933 16.336C79.6386 15.936 80.0226 15.624 80.5453 15.4C81.068 15.176 81.7453 15.048 82.5773 15.016L86.7133 14.848V16.352L84.5853 16.272V16.36C84.9213 16.4293 85.1986 16.5413 85.4173 16.696C85.6413 16.8453 85.8093 17.04 85.9213 17.28C86.0333 17.5147 86.0893 17.8 86.0893 18.136V18.208C86.0893 18.9813 85.804 19.5733 85.2333 19.984C84.6626 20.3893 83.8013 20.592 82.6493 20.592ZM82.5533 24.496H82.7773C83.1933 24.496 83.5373 24.4667 83.8093 24.408C84.0813 24.3547 84.284 24.2693 84.4173 24.152C84.556 24.04 84.6253 23.8933 84.6253 23.712V23.688C84.6253 23.464 84.5373 23.2987 84.3613 23.192C84.1906 23.0907 83.9133 23.0213 83.5293 22.984L81.2333 22.76L81.7053 22.736C81.508 22.7733 81.332 22.8293 81.1773 22.904C81.028 22.9733 80.9106 23.0667 80.8253 23.184C80.74 23.3013 80.6973 23.4453 80.6973 23.616V23.632C80.6973 23.8293 80.7666 23.992 80.9053 24.12C81.044 24.2533 81.252 24.3493 81.5293 24.408C81.8066 24.4667 82.148 24.496 82.5533 24.496ZM82.4413 26.04C81.684 26.04 81.036 25.976 80.4973 25.848C79.9586 25.7253 79.5453 25.528 79.2573 25.256C78.9746 24.984 78.8333 24.624 78.8333 24.176V24.144C78.8333 23.84 78.9 23.584 79.0333 23.376C79.1666 23.168 79.356 23.0027 79.6013 22.88C79.8466 22.7573 80.1293 22.68 80.4493 22.648V22.568C80.044 22.488 79.7373 22.3573 79.5293 22.176C79.3266 21.9893 79.2253 21.736 79.2253 21.416V21.408C79.2253 21.184 79.276 20.9947 79.3773 20.84C79.4786 20.6853 79.628 20.5627 79.8253 20.472C80.028 20.3813 80.276 20.328 80.5693 20.312V20.08L82.3053 20.512L81.7453 20.496C81.5 20.5013 81.3293 20.536 81.2333 20.6C81.1373 20.6587 81.0893 20.744 81.0893 20.856V20.864C81.0893 21.0027 81.164 21.104 81.3133 21.168C81.4626 21.2267 81.7106 21.2773 82.0573 21.32L83.9373 21.528C84.8173 21.6293 85.4653 21.8453 85.8813 22.176C86.3026 22.5067 86.5133 23.016 86.5133 23.704V23.744C86.5133 24.272 86.364 24.704 86.0653 25.04C85.7666 25.3813 85.3346 25.632 84.7693 25.792C84.2093 25.9573 83.5293 26.04 82.7293 26.04H82.4413ZM82.5933 19.168C82.9506 19.168 83.2466 19.1173 83.4813 19.016C83.7213 18.9147 83.9 18.7653 84.0173 18.568C84.14 18.3707 84.2013 18.1307 84.2013 17.848V17.76C84.2013 17.4773 84.1426 17.24 84.0253 17.048C83.908 16.8507 83.732 16.704 83.4973 16.608C83.2626 16.5067 82.9666 16.456 82.6093 16.456H82.5853C82.2066 16.456 81.8973 16.5093 81.6573 16.616C81.4173 16.7173 81.2413 16.8667 81.1293 17.064C81.0173 17.256 80.9613 17.488 80.9613 17.76V17.848C80.9613 18.1307 81.02 18.3707 81.1373 18.568C81.26 18.7653 81.4413 18.9147 81.6813 19.016C81.9266 19.1173 82.2306 19.168 82.5933 19.168ZM89.9996 23.192C89.3702 23.192 88.8102 23.1307 88.3196 23.008C87.8342 22.8907 87.4209 22.7573 87.0796 22.608L86.8956 20.832C87.3009 21.0187 87.7462 21.1813 88.2316 21.32C88.7222 21.4587 89.2609 21.528 89.8476 21.528C90.3596 21.528 90.7302 21.464 90.9596 21.336C91.1889 21.2027 91.3036 21.0053 91.3036 20.744V20.696C91.3036 20.52 91.2502 20.376 91.1436 20.264C91.0422 20.152 90.8609 20.0507 90.5996 19.96C90.3382 19.864 89.9702 19.7627 89.4956 19.656C88.8396 19.5013 88.3196 19.3227 87.9356 19.12C87.5569 18.912 87.2849 18.6587 87.1196 18.36C86.9542 18.056 86.8716 17.6933 86.8716 17.272V17.2C86.8716 16.4587 87.1356 15.9013 87.6636 15.528C88.1916 15.1493 88.9729 14.96 90.0076 14.96C90.6209 14.96 91.1622 15.0213 91.6316 15.144C92.1062 15.2613 92.5009 15.4027 92.8156 15.568L92.9996 17.2C92.6262 17.024 92.2076 16.8773 91.7436 16.76C91.2796 16.6373 90.7809 16.576 90.2476 16.576C89.9009 16.576 89.6262 16.6053 89.4236 16.664C89.2262 16.7173 89.0849 16.7947 88.9996 16.896C88.9142 16.9973 88.8716 17.12 88.8716 17.264V17.304C88.8716 17.464 88.9169 17.6027 89.0076 17.72C89.1036 17.8373 89.2769 17.944 89.5276 18.04C89.7782 18.1307 90.1302 18.2293 90.5836 18.336C91.2449 18.4747 91.7756 18.6373 92.1756 18.824C92.5756 19.0107 92.8662 19.2507 93.0476 19.544C93.2289 19.832 93.3196 20.2107 93.3196 20.68V20.776C93.3196 21.5867 93.0449 22.192 92.4956 22.592C91.9462 22.992 91.1142 23.192 89.9996 23.192Z" fill="black"/>
<rect x="14.7778" y="10" width="2.66667" height="18.2222" fill="black"/>
<rect x="24.5556" y="10" width="2.66667" height="18.2222" fill="black"/>
<rect x="13" y="18.4444" width="6.22222" height="6.22222" fill="black"/>
<rect x="22.7778" y="10" width="6.22222" height="6.22222" fill="black"/>
</svg>
